<svg fill="none" height="61" viewBox="0 0 61 61" width="61" xmlns="http://www.w3.org/2000/svg"><path d="m.437408.723639h59.999992v59.999961h-59.999992z" fill="#fff"/><g fill="#542ded"><path d="m25.1598 43.5442c-.8453 0-1.6716.2507-2.3743.7203-.7028.4695-1.2505 1.1369-1.5739 1.9178-.3235.7809-.4081 1.6402-.2433 2.4691.1649.829.572 1.5905 1.1697 2.1882.5975.5976 1.3591 1.0046 2.188 1.1695.829.1649 1.6882.0803 2.4691-.2432.7809-.3234 1.4484-.8711 1.918-1.574.4695-.7027.7201-1.5289.7201-2.3742 0-1.1333-.4502-2.2204-1.2516-3.0218-.8015-.8014-1.8885-1.2517-3.0218-1.2517z" opacity=".64"/><path d="m42.2753 43.5442c-.8452 0-1.6715.2507-2.3742.7203-.7028.4695-1.2505 1.1369-1.574 1.9178-.3234.7809-.408 1.6402-.2432 2.4691.1649.829.572 1.5905 1.1695 2.1882.5977.5976 1.3592 1.0046 2.1882 1.1695s1.6882.0803 2.4691-.2432c.7809-.3234 1.4484-.8711 1.9178-1.574.4697-.7027.7203-1.5289.7203-2.3742 0-1.1333-.4503-2.2204-1.2517-3.0218s-1.8884-1.2517-3.0218-1.2517z" opacity=".64"/><path d="m46.463 13.6294h-27.9061c-.2638.0091-.5151.1157-.7051.2992l4.2736 18.6325c0 .1495 0 .2777.1495.4273.4982.605 1.1249 1.0916 1.8345 1.4243.7096.3325 1.4845.503 2.2681.4988h15.8974c2.5226-.0278 4.9336-1.0437 6.7154-2.8296 1.7819-1.7858 2.7923-4.1991 2.8146-6.7217v-6.4102c-.0056-1.4131-.571-2.7663-1.5722-3.7635-1.0011-.9972-2.3566-1.5571-3.7697-1.5571z"/><path d="m43.5571 40.9588h-14.53c-2.254.0094-4.4435-.7527-6.2044-2.1598-1.7609-1.4072-2.9872-3.3746-3.4751-5.5752l-4.2735-18.8676c-.1432-.6337-.4945-1.2012-.9981-1.6118-.5035-.4105-1.1301-.6405-1.7796-.6532h-1.859c-.3627 0-.71051-.1441-.96697-.4005-.25647-.2565-.40054-.6043-.40054-.967s.14407-.7105.40054-.967c.25646-.25646.60427-.40054.96697-.40054h1.859c1.2834-.0061 2.5301.42727 3.5331 1.22804 1.0029.8008 1.7015 1.9208 1.9796 3.1737l4.2736 18.8675c.3554 1.5921 1.244 3.015 2.5186 4.0331s2.8587 1.5704 4.4899 1.5653h14.53c.3627 0 .7105.1439.9669.4005.2565.2564.4005.6042.4005.9669s-.144.7105-.4005.9671c-.2564.2564-.6042.4005-.9669.4005z" opacity=".8"/></g></svg>