<svg fill="none" height="61" viewBox="0 0 61 61" width="61" xmlns="http://www.w3.org/2000/svg"><path d="m.201141.569473h59.999959v60.000027h-59.999959z" fill="#fff"/><path d="m54.0046 33.6145c1.6816-13.1462-7.6121-25.1667-20.7585-26.84843-13.1462-1.68175-25.16662 7.61203-26.84837 20.75833-1.68173 13.1462 7.61207 25.1667 20.75837 26.8485 13.1462 1.6816 25.1667-7.6121 26.8485-20.7584z" fill="#070707"/><path d="m31.0905 30.1917v2.3005h5.0374v3.8477h-5.002v-.0137c-.1337 0-.2729.0137-.4066.0137-.743.002-1.4789-.1457-2.164-.4339-.9952-.421-1.8481-1.1203-2.4558-2.0139-.7465-1.1062-1.0699-2.4439-.9112-3.7689.1586-1.3248.7889-2.5484 1.7754-3.4469.9866-.8984 2.2636-1.4118 3.5976-1.4463 1.334-.0344 2.6357.4124 3.6674 1.2588h9.8237c-.1255-.393-.2728-.7805-.4284-1.1571-.9853-2.3342-2.5851-4.3575-4.6289-5.8547-2.0439-1.4972-4.4555-2.4122-6.9781-2.6477-2.5227-.2355-5.062.2173-7.3476 1.3104-2.2857 1.093-4.2324 2.7853-5.6327 4.8967-1.4002 2.1114-2.2019 4.5631-2.3196 7.0939-.1177 2.5309.453 5.0463 1.6514 7.2785 1.1982 2.2323 2.9794 4.0979 5.1538 5.3983 2.1745 1.3006 4.6608 1.9871 7.1943 1.9867h13.9171v-14.6075zm5.0374 12.2798h-4.639c-.1746 0-.3548.0191-.5458.0219h-.4038c-2.0114-.0282-3.9815-.574-5.7205-1.5849-1.7391-1.0108-3.1884-2.4526-4.2083-4.1863-1.0199-1.7338-1.5759-3.7011-1.6146-5.7122-.0386-2.011.4414-3.9982 1.394-5.7698.9525-1.7718 2.3453-3.2682 4.0443-4.3451 1.6989-1.0768 3.6466-1.698 5.6552-1.8034 2.0088-.1053 4.0108.3084 5.8131 1.2016 1.8024.8932 3.3441 2.2356 4.4769 3.8978h-5.3976c-1.0266-.6624-2.1934-1.0763-3.4079-1.2089s-2.4431.0197-3.5884.445-2.1757 1.1117-3.0093 2.0047c-.8338.8929-1.4477 1.9681-1.7934 3.1399-.3455 1.1718-.4132 2.408-.1975 3.6106.2158 1.2024.7088 2.3381 1.4401 3.3167s1.6807 1.7733 2.7727 2.321c1.0921.5476 2.2968.8332 3.5185.8338h5.4113zm6.2273.0219h-3.9242l.0219-.0137h-.0219v-3.8204h3.9242zm0-6.1482h-3.9242v-3.8476h3.9242z" fill="#262626"/><path d="m30.4109 29.4659v2.3003h5.0402v3.8477h-5.0074v-.0136c-.1337 0-.2729.0136-.4038.0136-.9111.0017-1.8085-.2217-2.6125-.65-.804-.4285-1.4898-1.0489-1.9966-1.8058-.5148-.7674-.8312-1.6504-.9208-2.5701-.0895-.9197.0507-1.8472.4077-2.6994.4205-.9966 1.121-1.8497 2.0168-2.4559.7659-.5165 1.6487-.8339 2.5683-.9235.9195-.0895 1.8469.0516 2.6983.4104.4914.2066.9509.4822 1.3644.8187h9.8238c-.1283-.393-.2729-.7804-.4285-1.157-.9888-2.3302-2.5903-4.3489-4.6344-5.8418-2.044-1.4929-4.4543-2.4042-6.9748-2.6372-2.5204-.233-5.0569.221-7.34 1.314-2.2832 1.0928-4.2276 2.7837-5.6268 4.8931-1.3993 2.1093-2.201 4.5582-2.3201 7.0866-.1191 2.5285.4489 5.0419 1.6437 7.2734 1.1947 2.2315 2.9716 4.0976 5.1419 5.4003s4.6528 1.9933 7.1841 1.9982h13.917v-14.6156zm5.0402 12.2798h-4.6391c-.1773 0-.3546.019-.5456.0217h-.3958c-2.012-.0252-3.9835-.5686-5.7245-1.5777-1.7408-1.0091-3.1924-2.4497-4.2144-4.183-1.0221-1.7334-1.5803-3.7007-1.6207-5.7126-.0404-2.0117.4383-4 1.3899-5.7729.9516-1.773 2.3441-3.2707 4.043-4.3489 1.699-1.0781 3.6471-1.7004 5.6566-1.8065 2.0093-.1061 4.0122.3074 5.8152 1.2006 1.8032.8931 3.3456 2.236 4.4788 3.8988h-5.3923c-1.0259-.6676-2.1934-1.0861-3.4097-1.2227-1.2163-.1365-2.4475.0131-3.5959.4366-1.1483.4235-2.1818 1.1094-3.0181 2.003-.8365.8935-1.4525 1.97-1.7993 3.1439-.3467 1.1738-.4146 2.4123-.1981 3.6168.2165 1.2046.7113 2.342 1.4451 3.3216s1.6862 1.7741 2.7814 2.3206c1.0953.5464 2.3029.8294 3.5268.8266h5.4113zm6.2272.0217h-3.9241l.0191-.0135h-.0191v-3.8423h3.9241zm0-6.148h-3.9241v-3.8477h3.9241z" fill="#fff"/><g fill="#999"><path d="m35.4512 37.9144h2.3031v1.0942h-2.3031z"/><path d="m33.5874 31.7664h1.8637v1.0942h2.3005v-1.0942h1.689v-.0029h-5.8532z"/></g></svg>