<svg fill="none" height="61" viewBox="0 0 61 61" width="61" xmlns="http://www.w3.org/2000/svg" xmlns:xlink="http://www.w3.org/1999/xlink"><linearGradient id="a" gradientUnits="userSpaceOnUse" x1="30.437" x2="51.6899" y1="34.8332" y2="34.8332"><stop offset="0" stop-color="#003fff"/><stop offset=".6883" stop-color="#690aff"/></linearGradient><linearGradient id="b" gradientUnits="userSpaceOnUse" x1="9.18496" x2="30.4538" y1="26.3189" y2="26.3189"><stop offset=".2862" stop-color="#e843a1"/><stop offset="1" stop-color="#003fff"/></linearGradient><linearGradient id="c" gradientUnits="userSpaceOnUse" x1="9.18496" x2="51.7064" y1="30.5694" y2="30.5694"><stop offset=".16" stop-color="#e843a1"/><stop offset=".84" stop-color="#690aff"/></linearGradient><path d="m.437408.569473h59.999992v60.000027h-59.999992z" fill="#fff"/><g clip-rule="evenodd" fill-rule="evenodd"><path d="m28.3543 32.3741c-.0429-.0582-.0857-.1162-.1282-.1738l4.4225-3.2616c3.2372 4.3895 5.6655 7.3843 10.3808 7.3843 3.3089 0 5.9129-2.6395 5.9129-5.7535h5.4951c0 6.237-5.1532 11.2486-11.408 11.2486-7.7139 0-11.6597-5.353-14.6751-9.444z" fill="url(#a)"/><path d="m17.8453 24.816c-3.3088 0-5.9128 2.6394-5.9128 5.7534h-5.49509c0-6.237 5.15309-11.2485 11.40789-11.2485 7.714 0 11.6598 5.353 14.6753 9.4441.0429.0581.0855.116.128.1736l-4.4225 3.2616c-3.2372-4.3896-5.6655-7.3842-10.3808-7.3842z" fill="url(#b)"/><path d="m28.3542 28.7648c3.0156-4.091 6.9614-9.4439 14.6753-9.4439 6.2548 0 11.4079 5.0115 11.4079 11.2485h-5.4951c0-3.114-2.604-5.7534-5.9128-5.7534-4.7153 0-7.1436 2.9946-10.3809 7.3842-.0425.0576-.0851.1154-.1279.1735-3.0156 4.0912-6.9613 9.4443-14.6754 9.4443-6.2548 0-11.40789-5.0116-11.40789-11.2486h5.49509c0 3.114 2.604 5.7535 5.9128 5.7535 4.7153 0 7.1436-2.9947 10.3808-7.3843.0426-.0577.0853-.1156.1281-.1738z" fill="url(#c)"/></g></svg>