<svg fill="none" height="61" viewBox="0 0 61 61" width="61" xmlns="http://www.w3.org/2000/svg"><path d="m.679792.292801h60.000008v59.999999h-60.000008z" fill="#fff"/><g fill="#003fff"><path d="m53.1071 28.3982c-.0221-.2247-.1261-.4334-.2923-.5862-.1661-.1529-.3828-.2392-.6085-.2425h-22.4471c-.6095.0148-1.2046.189-1.7261.505-.5214.316-.9512.763-1.2465 1.2965-.2733.4771-.4171 1.0174-.4171 1.5673s.1438 1.0903.4171 1.5674c.0781.15.1939.2771.3361.3687s.3057.1446.4745.1537h24.6632c.2257-.0033.4424-.0897.6085-.2425.1661-.1529.2701-.3616.2923-.5862 0-.7026 0-1.2971 0-1.8016 0-.5043-.0001-1.315-.0541-1.9996z" opacity=".72"/><path d="m53.089 28.3982c-.0179-.2231-.1181-.4316-.2813-.5848-.1632-.1533-.3776-.2402-.6015-.2439h-3.6031c-.1263.0014-.251.0294-.3659.0822-.1148.0527-.2172.129-.3006.224-.084.0913-.1469.1999-.1843.3183-.0373.1183-.0482.2433-.0319.3663v1.8015c-.0045 2.8747-.733 5.702-2.1184 8.2209-1.3854 2.5188-3.383 4.6481-5.8084 6.1914-.2522.1621-.4863.3603-.7565.5045-1.3219.7528-2.7403 1.3225-4.2157 1.6934l2.3601 4.1976c.0801.1388.1958.2537.3352.3328.1393.0792.2971.1198.4574.1176.0953.0172.193.0172.2883 0l.5764-.2342.5225-.2162c.7969-.331 1.573-.71 2.324-1.135 3.5125-1.9786 6.431-4.8617 8.4522-8.3498 2.0213-3.4881 3.0715-7.4538 3.0417-11.4851 0-.6665-.0362-1.189-.0902-1.8015z"/><path d="m40.3372 45.4977c-.1211-.2054-.3135-.3593-.5406-.4323h-.2522c-.1564.0013-.3105.0382-.4504.1081-2.5689 1.4617-5.4755 2.2257-8.4311 2.2159-4.5361-.0095-8.8838-1.8157-12.0913-5.0233-3.2076-3.2075-5.0137-7.5552-5.0233-12.0913.0096-4.5361 1.8157-8.8838 5.0233-12.0914 3.2075-3.2075 7.5552-5.0137 12.0913-5.0232 2.9543.0009 5.8581.7642 8.4311 2.2159.1344.0854.2912.1292.4504.1261h.1981c.1236-.0272.2401-.0797.3424-.1542.1023-.0743.1883-.1691.2523-.2781l1.8015-3.1347c.1191-.2085.1518-.4554.0913-.6877-.0606-.2323-.2099-.4317-.4157-.5554-3.391-1.91627-7.2203-2.92173-11.1153-2.91849-5.9695.00953-11.6919 2.38519-15.913 6.60629s-6.59668 9.9434-6.60621 15.9129c.00953 5.9695 2.38511 11.6919 6.60621 15.913 4.2211 4.221 9.9435 6.5967 15.913 6.6062 3.895.0033 7.7243-1.0022 11.1153-2.9185.1031-.0578.1936-.1358.2659-.2292.0724-.0935.1253-.2004.1555-.3147.0302-.1142.0373-.2334.0207-.3504-.0167-.117-.0567-.2294-.1177-.3307z"/><path d="m33.236 32.9559h-5.6927c-.1614-.0115-.3179-.0617-.4559-.1464s-.2535-.2013-.3369-.34l10.467 18.5378c.0801.1388.1959.2537.3352.3329s.2972.1197.4574.1175c.1014.0172.205.0172.3063 0 1.1904-.4286 2.3418-.959 3.4411-1.5854.103-.0578.1932-.1358.2656-.2292s.1252-.2004.1555-.3147c.0303-.1142.0374-.2334.0206-.3504-.0166-.117-.0567-.2294-.1176-.3307z" opacity=".56"/></g></svg>