<svg fill="none" height="61" viewBox="0 0 61 61" width="61" xmlns="http://www.w3.org/2000/svg" xmlns:xlink="http://www.w3.org/1999/xlink"><linearGradient id="a" gradientUnits="userSpaceOnUse" x1="34.7788" x2="13.0486" y1="45.3324" y2="8.26079"><stop offset="0" stop-color="#2535c5"/><stop offset=".169697" stop-color="#36409b"/><stop offset=".575758" stop-color="#475bc6"/><stop offset="1" stop-color="#7075e4"/></linearGradient><linearGradient id="b" gradientUnits="userSpaceOnUse" x1="50.4032" x2="50.4032" y1="11.8765" y2="48.546"><stop offset="0" stop-color="#375ad8"/><stop offset=".472727" stop-color="#3c56dd"/><stop offset="1" stop-color="#2a1a8f"/></linearGradient><linearGradient id="c" gradientUnits="userSpaceOnUse" x1="28.926" x2="28.926" y1="11.8765" y2="48.9122"><stop offset="0" stop-color="#233593"/><stop offset=".472727" stop-color="#4957d7"/><stop offset=".890909" stop-color="#5465ff"/><stop offset="1" stop-color="#6a67ff"/></linearGradient><linearGradient id="d" gradientUnits="userSpaceOnUse" x1="9.9614" x2="15.0944" y1="18.1514" y2="11.727"><stop offset="0" stop-color="#3a4a9c"/><stop offset=".327273" stop-color="#475bc6"/><stop offset="1" stop-color="#7090e4"/></linearGradient><linearGradient id="e" gradientUnits="userSpaceOnUse" x1="50.6602" x2="45.6978" y1="42.7367" y2="48.6353"><stop offset="0" stop-color="#2d3792"/><stop offset=".193939" stop-color="#3f2bb8"/><stop offset="1" stop-color="#3c38ff"/></linearGradient><path d="m.679792.394276h60.000008v60.000024h-60.000008z" fill="#fff"/><path d="m31.3361 21.8403v11.3565c0 5.2905-3.1991 8.4859-8.0487 8.4859-4.8501 0-8.255-3.1954-8.255-8.4859v-21.3203h-8.15211v21.3203c0 9.691 6.39721 15.7152 16.40711 15.7152 9.9576 0 16.2009-6.0242 16.2009-15.7152v-21.3203h-.1432c-4.2991 1.4015-7.5063 5.2693-8.009 9.9638z" fill="url(#a)"/><path d="m46.467 11.8765h-.14v36.6694h8.1523v-26.6982c-.077-4.075-3.7106-8.5688-8.0123-9.9712z" fill="url(#b)"/><path d="m31.3361 21.8403v11.3565c0 .0068-.0004.0137-.0004.0212.0019.1129.0079.225.0079.3388 0 7.6483-5.6736 13.9478-12.9796 14.8061 1.5205.3596 3.1651.5491 4.9234.5491 9.9576 0 16.2009-6.0242 16.2009-15.7152v-21.3203h-.1432c-4.2991 1.4015-7.5063 5.2693-8.009 9.9638z" fill="url(#c)"/><path d="m15.0324 21.8587v-9.9822h-8.15211v.0016c4.33421 1.404 7.58201 5.2709 8.15211 9.9806z" fill="url(#d)"/><path d="m46.327 37.6793v10.8665h8.0528c-4.4907-1.6089-7.7655-5.83-8.0528-10.8665z" fill="url(#e)"/></svg>