<svg enable-background="new 0 0 52.2 44.3" viewBox="0 0 52.2 44.3" xmlns="http://www.w3.org/2000/svg"><path d="m43.2 41.8c-.1 0-.3 0-.5 0-.4 0-.7 0-.9 0-.3 0-.5-.2-.7-.4-.1-.2-.1-.6 0-1l.4-1.4c.3-1 .5-1.7.6-2.2.1-.3 0-.5-.2-.7-.5-.5-.8-1.1-1-1.8s-.1-1.4.1-2.1.6-1.2 1.1-1.7c.2-.2.3-.4.3-.7v-14.4c0-.3 0-.5-.1-.5-.1-.1-.2 0-.4 0-2.7.9-6.8 2.2-12.2 4l-2.5.8c-.7.2-1.5.3-2.2.1-4.9-1.6-8.5-2.9-10.9-3.7-4-1.4-7.6-2.8-10.8-4-.3-.1-.4-.3-.6-.4-.1-.1-.2-.4-.2-.7s.1-.5.2-.7.3-.3.5-.4c2.2-.9 5.5-2 9.8-3.4l3.9-1.3c1.1-.4 2.8-1 5.1-1.7l2.3-.7c1.3-.5 2.7-.5 4.2.1 4.2 1.4 7.6 2.6 10.3 3.5 3.8 1.3 7.1 2.7 10.2 4l.2.1c.5.2.7.6.7 1.1 0 .3-.1.5-.2.6s-.3.2-.6.3c-2.1.7-3.8 1.3-4.8 1.6-.2.1-.3.2-.3.2 0 .1-.1.2-.1.4v15.1c0 .2.1.4.3.6.6.4 1 .9 1.3 1.6s.3 1.4.2 2.2-.5 1.4-1 1.9c-.1.1-.2.2-.2.3s0 .3.1.5l.9 3.4c.3 1 0 1.5-.9 1.5zm-32.3-21.5c0-.2 0-.5 0-1 0-.9 0-1.6 0-2.1 0-.2 0-.4.1-.5s.2 0 .4 0c3.8 1.4 6.9 2.5 9.1 3.1l5 1.6c.4.1.9.1 1.4 0 .3 0 .7-.2 1.3-.4 1.6-.6 4-1.4 7.2-2.4l5.4-1.8c.3-.1.5-.1.6-.1 0 0 .1.3.1.7v5.6c0 1.2-.3 2.2-1 3-.8 1.1-2 1.9-3.5 2.6-2.3 1-4.9 1.6-7.8 1.8-2.9.3-5.8.2-8.7-.4-2.5-.4-4.6-1.1-6.4-2.2-1-.6-1.7-1.2-2.3-2s-.8-1.7-.8-2.8v-2.7z" fill="#00a651"/></svg>